<svg width="98" height="97" viewBox="0 0 98 97" fill="none" xmlns="http://www.w3.org/2000/svg">
<g filter="url(#filter0_dd)">
<ellipse cx="49.2595" cy="46.104" rx="35.926" ry="35.9043" fill="white"/>
</g>
<path d="M40.314 58.874C38.7999 58.874 37.5748 60.1156 37.5748 61.6331C37.5748 63.1507 38.7999 64.3923 40.314 64.3923C41.8282 64.3923 43.067 63.1507 43.067 61.6331C43.067 60.1156 41.8282 58.874 40.314 58.874ZM32.0552 36.8008V39.5599H34.8081L39.7634 50.0309L37.9052 53.4109C37.685 53.7971 37.5611 54.2524 37.5611 54.7353C37.5611 56.2528 38.7999 57.4944 40.314 57.4944H56.8318V54.7353H40.8922C40.6994 54.7353 40.548 54.5835 40.548 54.3904L40.5893 54.2248L41.8282 51.9761H52.0829C53.1153 51.9761 54.0237 51.4105 54.4917 50.5551L59.4195 41.6017C59.5296 41.4086 59.5847 41.174 59.5847 40.9395C59.5847 40.1807 58.9653 39.5599 58.2082 39.5599H37.8501L36.5563 36.8008H32.0552ZM54.0788 58.874C52.5647 58.874 51.3396 60.1156 51.3396 61.6331C51.3396 63.1507 52.5647 64.3923 54.0788 64.3923C55.5929 64.3923 56.8318 63.1507 56.8318 61.6331C56.8318 60.1156 55.5929 58.874 54.0788 58.874Z" fill="#333333"/>
<path d="M67.3471 37.4907C67.3471 42.1706 63.562 45.9625 58.8953 45.9625C54.2286 45.9625 50.4436 42.1706 50.4436 37.4907C50.4436 32.8107 54.2286 29.0188 58.8953 29.0188C63.562 29.0188 67.3471 32.8107 67.3471 37.4907Z" fill="#40B756" stroke="#3DB657" stroke-width="0.990764"/>
<path d="M61.8655 33.3397V34.1482L58.5009 41.6621H57.2406L60.5339 34.3741H56.7294V35.8602H55.588V33.3397H61.8655Z" fill="white"/>
<defs>
<filter id="filter0_dd" x="0.94895" y="0.29207" width="96.6212" height="96.5778" filterUnits="userSpaceOnUse" color-interpolation-filters="sRGB">
<feFlood flood-opacity="0" result="BackgroundImageFix"/>
<feColorMatrix in="SourceAlpha" type="matrix" values="0 0 0 0 0 0 0 0 0 0 0 0 0 0 0 0 0 0 127 0"/>
<feOffset dy="2.47691"/>
<feGaussianBlur stdDeviation="6.19227"/>
<feColorMatrix type="matrix" values="0 0 0 0 0 0 0 0 0 0 0 0 0 0 0 0 0 0 0.25 0"/>
<feBlend mode="normal" in2="BackgroundImageFix" result="effect1_dropShadow"/>
<feColorMatrix in="SourceAlpha" type="matrix" values="0 0 0 0 0 0 0 0 0 0 0 0 0 0 0 0 0 0 127 0"/>
<feOffset dy="1.98153"/>
<feGaussianBlur stdDeviation="2.47691"/>
<feColorMatrix type="matrix" values="0 0 0 0 0.2 0 0 0 0 0.2 0 0 0 0 0.2 0 0 0 0.1 0"/>
<feBlend mode="normal" in2="effect1_dropShadow" result="effect2_dropShadow"/>
<feBlend mode="normal" in="SourceGraphic" in2="effect2_dropShadow" result="shape"/>
</filter>
</defs>
</svg>
