<svg width="25" height="25" viewBox="0 0 25 25" fill="none" xmlns="http://www.w3.org/2000/svg">
<path d="M12.5 0C19.4039 0 25 5.59687 25 12.5C25 19.404 19.4039 25 12.5 25C5.59601 25 0 19.4039 0 12.5C0 5.59687 5.5961 0 12.5 0Z" fill="white"/>
<path d="M20.3144 8.42105C19.7684 8.65696 19.1808 8.81555 18.5645 8.88747C19.1942 8.52103 19.677 7.94211 19.9043 7.25077C19.3153 7.59061 18.6637 7.83673 17.9692 7.96872C17.4137 7.39452 16.6223 7.03589 15.7457 7.03589C14.0645 7.03589 12.7004 8.35858 12.7004 9.99133C12.7004 10.2234 12.7271 10.4492 12.7793 10.6656C10.2481 10.5422 8.00276 9.36478 6.50123 7.57653C6.23872 8.01325 6.08871 8.52026 6.08871 9.06245C6.08871 10.0874 6.62618 10.9937 7.44341 11.5226C6.94344 11.507 6.47463 11.3749 6.06296 11.1523V11.1898C6.06296 12.6226 7.11293 13.8172 8.50668 14.0891C8.2512 14.1563 7.98242 14.193 7.70429 14.193C7.5082 14.193 7.3176 14.1751 7.13164 14.1399C7.5191 15.3149 8.64416 16.1695 9.97775 16.193C8.93482 16.9867 7.62148 17.4587 6.19418 17.4587C5.94806 17.4587 5.70588 17.4446 5.4668 17.4173C6.81601 18.2563 8.41606 18.7462 10.1371 18.7462C15.7402 18.7462 18.8043 14.2399 18.8043 10.3336L18.7957 9.95082C19.3894 9.53513 19.9059 9.01482 20.3144 8.42105Z" fill="#00ADEE"/>
</svg>
