<svg width="85" height="32" viewBox="0 0 85 32" fill="none" xmlns="http://www.w3.org/2000/svg">
<g clip-path="url(#clip0)">
<path fill-rule="evenodd" clip-rule="evenodd" d="M0.488968 15.452C0.488968 10.4485 4.54514 6.39229 9.54868 6.39229C14.5522 6.39229 18.6084 10.4485 18.6084 15.452C18.6084 20.4556 14.5522 24.5117 9.54868 24.5117C4.54514 24.5117 0.488968 20.4556 0.488968 15.452Z" fill="white"/>
<path fill-rule="evenodd" clip-rule="evenodd" d="M12.9485 23.8513L9.55663 21.7761V18.6332L12.3885 16.5757L15.6931 17.3175L16.3516 21.433L12.9485 23.8513Z" fill="#00ADEE"/>
<path fill-rule="evenodd" clip-rule="evenodd" d="M18.5498 14.4356L15.6928 17.3176L12.3881 16.5759L11.3065 13.2466L13.3488 10.1037L17.3669 10.875L18.5498 14.4356Z" fill="#00ADEE"/>
<path fill-rule="evenodd" clip-rule="evenodd" d="M6.47071 23.9758L9.53906 21.7767V18.6337L6.70703 16.5763L3.40236 17.318L2.90321 21.61L6.47071 23.9758Z" fill="#00ADEE"/>
<path fill-rule="evenodd" clip-rule="evenodd" d="M0.550865 14.3893L3.40254 17.3176L6.70721 16.5759L7.78906 13.2466L5.74667 10.1037L1.73895 10.8565L0.550865 14.3893Z" fill="#00ADEE"/>
<path fill-rule="evenodd" clip-rule="evenodd" d="M7.78854 6.56391L5.74654 10.1041L7.78893 13.2471H11.3072L13.3496 10.1041L11.3072 6.56391H7.78854Z" fill="#00ADEE"/>
<path d="M1.29064 10.6634C0.649391 11.7653 0.222336 13.0062 0.0666962 14.3291C0.066124 14.3333 0.0657425 14.3375 0.0651703 14.3417C0.0228271 14.706 0.000320435 15.0764 0.000320435 15.452C0.000320435 17.9319 0.950943 20.1939 2.50658 21.8931C2.53137 21.9278 2.56055 21.9595 2.59374 21.9868C3.60426 23.0616 4.86005 23.9033 6.2713 24.4205C6.29667 24.432 6.32299 24.4415 6.34988 24.4484C7.35029 24.8051 8.4268 25 9.54832 25C10.7992 25 11.9945 24.7578 13.0903 24.3185C13.12 24.3095 13.1486 24.2977 13.1763 24.2832C14.5236 23.7278 15.7169 22.8725 16.6728 21.8012C16.7041 21.7735 16.732 21.7424 16.7554 21.7081C18.2128 20.0312 19.0963 17.8429 19.0963 15.452C19.0963 15.0936 19.0757 14.7398 19.037 14.3915C19.0366 14.3871 19.036 14.3829 19.0355 14.3787C18.9645 13.7466 18.8316 13.1332 18.6429 12.5444L23.772 7.41539C23.9627 7.22466 23.9627 6.91547 23.772 6.72474C23.6766 6.62937 23.5517 6.58169 23.4268 6.58169C23.3018 6.58169 23.1769 6.62937 23.0815 6.72474L18.2601 11.5459C18.1259 11.2478 17.9767 10.9575 17.8136 10.6766C17.7987 10.643 17.7799 10.6115 17.7579 10.5824C16.5475 8.54969 14.6043 7.00245 12.2953 6.30741L15.735 2.86789C15.9255 2.67715 15.9255 2.36797 15.735 2.17724C15.6396 2.08187 15.5145 2.03419 15.3896 2.03419C15.2646 2.03419 15.1397 2.08187 15.0443 2.17724L11.178 6.04382C10.6481 5.95226 10.1037 5.90401 9.54832 5.90401C6.07027 5.90401 3.02099 7.77378 1.35168 10.5606C1.32726 10.5923 1.30666 10.6266 1.29064 10.6634ZM5.51542 10.6441L7.25263 13.3175L6.3289 16.1604L4.13335 16.6534L3.5621 16.7816L1.06596 14.2183C1.21759 13.1708 1.55939 12.184 2.0553 11.294L5.51542 10.6441ZM11.8438 13.3175L13.5803 10.6455L17.0511 11.3115C17.5483 12.2089 17.889 13.2046 18.0366 14.2612L15.5372 16.7824L12.7675 16.1604L12.152 14.2658L11.8438 13.3175ZM16.6555 20.2385L16.2151 17.4856L18.1182 15.5659C18.0955 17.2937 17.5598 18.9001 16.6555 20.2385ZM10.9527 13.735L11.8152 16.3895L9.55728 18.0298L7.29936 16.3893L8.16187 13.735H10.9527ZM0.977837 15.5275L2.89091 17.4921L2.55273 20.3997C1.57426 19.0201 0.993668 17.3401 0.977837 15.5275ZM3.41543 21.4336L3.84763 17.7183L4.8982 17.4826L6.59898 17.1007L9.05107 18.8822V21.5256L6.401 23.4249C5.26785 22.9759 4.25294 22.2919 3.41543 21.4336ZM7.56582 23.7915L9.56892 22.3558L11.802 23.7221C11.0835 23.9182 10.328 24.0234 9.54832 24.0234C8.86606 24.0234 8.2023 23.9429 7.56582 23.7915ZM12.9871 23.3025L10.0456 21.5027V18.8822L11.7751 17.6256L12.4975 17.1007L15.2639 17.7217L15.8323 21.2746C15.0379 22.1313 14.071 22.8258 12.9871 23.3025ZM16.2959 10.1723L13.6613 9.66644L12.3195 7.34062C13.9047 7.88364 15.2818 8.87909 16.2959 10.1723ZM10.9977 7.00378L12.7775 10.0887L11.0425 12.7584H8.0541L6.31918 10.0887L8.09854 7.00397C8.57004 6.92329 9.05431 6.88076 9.54832 6.88076C10.0423 6.88057 10.5264 6.9231 10.9977 7.00378ZM6.77694 7.34062L5.43588 9.66549L2.81137 10.1585C3.82436 8.87203 5.19727 7.88174 6.77694 7.34062Z" fill="white"/>
<path d="M18.2753 7.41569L24.8569 0.833807C25.0477 0.643072 25.0477 0.333891 24.8569 0.143156C24.7616 0.0479794 24.6367 0.000295639 24.5117 0.000295639C24.3868 0.000295639 24.2619 0.0479794 24.1665 0.143347L17.5846 6.72503C17.3941 6.91577 17.3941 7.22495 17.5846 7.41569C17.7753 7.60623 18.0845 7.60623 18.2753 7.41569Z" fill="white"/>
<path d="M16.8877 1.51318C17.0161 1.51318 17.1419 1.46092 17.2327 1.37013C17.3235 1.27934 17.376 1.15346 17.376 1.02452C17.376 0.896156 17.3237 0.770653 17.2327 0.679672C17.1419 0.58831 17.0161 0.53624 16.8877 0.53624C16.7591 0.53624 16.6333 0.58831 16.5425 0.679672C16.4517 0.770462 16.3994 0.896156 16.3994 1.02452C16.3994 1.15346 16.4515 1.27934 16.5425 1.37013C16.6333 1.46092 16.7591 1.51318 16.8877 1.51318Z" fill="white"/>
</g>
<path d="M33.88 26.432C32.872 26.432 31.984 26.256 31.216 25.904C30.448 25.552 29.856 25.064 29.44 24.44C29.024 23.8 28.816 23.064 28.816 22.232C28.816 21.528 28.96 20.888 29.248 20.312C29.552 19.736 29.952 19.28 30.448 18.944C30.96 18.608 31.52 18.44 32.128 18.44C32.688 18.44 33.16 18.584 33.544 18.872C33.928 19.144 34.168 19.528 34.264 20.024C33.432 20.024 32.768 20.248 32.272 20.696C31.776 21.128 31.528 21.72 31.528 22.472C31.528 23.16 31.736 23.712 32.152 24.128C32.568 24.544 33.12 24.752 33.808 24.752C34.656 24.752 35.352 24.472 35.896 23.912C36.456 23.336 36.736 22.616 36.736 21.752C36.736 21 36.528 20.288 36.112 19.616C35.696 18.944 35.072 18.128 34.24 17.168C33.376 16.176 32.72 15.328 32.272 14.624C31.84 13.904 31.624 13.12 31.624 12.272C31.624 11.44 31.856 10.696 32.32 10.04C32.784 9.368 33.424 8.84 34.24 8.456C35.056 8.072 35.976 7.88 37 7.88C38.296 7.88 39.328 8.184 40.096 8.792C40.88 9.4 41.272 10.216 41.272 11.24C41.272 11.912 41.104 12.456 40.768 12.872C40.432 13.288 39.992 13.496 39.448 13.496C38.84 13.496 38.352 13.248 37.984 12.752C38.288 12.528 38.528 12.232 38.704 11.864C38.88 11.496 38.968 11.112 38.968 10.712C38.968 10.2 38.816 9.792 38.512 9.488C38.208 9.184 37.792 9.032 37.264 9.032C36.624 9.032 36.096 9.264 35.68 9.728C35.28 10.176 35.08 10.752 35.08 11.456C35.08 12.096 35.264 12.696 35.632 13.256C36 13.8 36.576 14.504 37.36 15.368C38 16.056 38.512 16.648 38.896 17.144C39.296 17.64 39.632 18.216 39.904 18.872C40.192 19.512 40.336 20.208 40.336 20.96C40.336 21.984 40.048 22.912 39.472 23.744C38.912 24.576 38.136 25.232 37.144 25.712C36.168 26.192 35.08 26.432 33.88 26.432ZM43.0315 13.112H46.4875L46.1035 14.912C46.9035 14.224 47.8395 13.88 48.9115 13.88C49.8075 13.88 50.5195 14.176 51.0475 14.768C51.5755 15.36 51.8395 16.328 51.8395 17.672C51.8395 18.936 51.6555 20.216 51.2875 21.512C50.9195 22.792 50.2955 23.888 49.4155 24.8C48.5355 25.696 47.3755 26.144 45.9355 26.144C44.9115 26.144 44.2315 25.856 43.8955 25.28L42.6475 31.136L39.0235 32L43.0315 13.112ZM45.1915 24.056C45.9595 24.056 46.5915 23.696 47.0875 22.976C47.5995 22.256 47.9675 21.4 48.1915 20.408C48.4315 19.4 48.5515 18.464 48.5515 17.6C48.5515 16.272 48.1515 15.608 47.3515 15.608C47.0635 15.608 46.7675 15.712 46.4635 15.92C46.1755 16.128 45.9195 16.416 45.6955 16.784L44.2795 23.504C44.4075 23.872 44.7115 24.056 45.1915 24.056ZM55.4581 26.096C54.2741 26.096 53.3381 25.792 52.6501 25.184C51.9621 24.576 51.6181 23.616 51.6181 22.304C51.6181 21.216 51.8421 20.008 52.2901 18.68C52.7381 17.352 53.4581 16.208 54.4501 15.248C55.4421 14.272 56.6901 13.784 58.1941 13.784C60.2421 13.784 61.2661 15.064 61.2661 17.624V17.648C61.3141 17.664 61.4021 17.672 61.5301 17.672C62.0581 17.672 62.6661 17.536 63.3541 17.264C64.0421 16.976 64.6661 16.632 65.2261 16.232L65.4421 16.88C64.9781 17.376 64.3701 17.8 63.6181 18.152C62.8821 18.488 62.0741 18.728 61.1941 18.872C61.0661 20.328 60.7381 21.6 60.2101 22.688C59.6821 23.776 59.0021 24.616 58.1701 25.208C57.3381 25.8 56.4341 26.096 55.4581 26.096ZM56.4181 23.936C56.8021 23.936 57.1861 23.72 57.5701 23.288C57.9541 22.84 58.2901 22.24 58.5781 21.488C58.8661 20.72 59.0741 19.872 59.2021 18.944C58.7701 18.848 58.5541 18.512 58.5541 17.936C58.5541 17.28 58.8021 16.848 59.2981 16.64C59.2661 16.112 59.1861 15.752 59.0581 15.56C58.9301 15.352 58.7061 15.248 58.3861 15.248C57.8581 15.248 57.3461 15.632 56.8501 16.4C56.3541 17.168 55.9541 18.088 55.6501 19.16C55.3461 20.232 55.1941 21.176 55.1941 21.992C55.1941 22.76 55.2821 23.28 55.4581 23.552C55.6341 23.808 55.9541 23.936 56.4181 23.936ZM63.6529 14H67.1089L66.7969 15.488C67.3409 15.008 67.8289 14.64 68.2609 14.384C68.7089 14.128 69.1889 14 69.7009 14C70.2129 14 70.6129 14.176 70.9009 14.528C71.2049 14.88 71.3569 15.304 71.3569 15.8C71.3569 16.264 71.2049 16.672 70.9009 17.024C70.5969 17.376 70.1729 17.552 69.6289 17.552C69.2769 17.552 69.0369 17.472 68.9089 17.312C68.7969 17.136 68.7089 16.888 68.6449 16.568C68.5969 16.36 68.5489 16.208 68.5009 16.112C68.4529 16.016 68.3649 15.968 68.2369 15.968C67.9009 15.968 67.6129 16.04 67.3729 16.184C67.1489 16.312 66.8529 16.544 66.4849 16.88L64.5649 26H61.1089L63.6529 14ZM72.9404 26.144C72.1724 26.144 71.5484 25.904 71.0684 25.424C70.6044 24.944 70.3724 24.224 70.3724 23.264C70.3724 22.864 70.4364 22.344 70.5644 21.704L72.0044 14.96H71.2124L71.4044 14H72.1964L72.9164 10.688L76.4684 10.208L75.6524 14H77.0924L76.9004 14.96H75.4604L73.9244 22.16C73.8604 22.4 73.8284 22.656 73.8284 22.928C73.8284 23.248 73.9004 23.48 74.0444 23.624C74.2044 23.752 74.4604 23.816 74.8124 23.816C75.2764 23.816 75.7084 23.624 76.1084 23.24C76.5084 22.84 76.7964 22.328 76.9724 21.704H77.9804C77.3884 23.432 76.6284 24.608 75.7004 25.232C74.7724 25.84 73.8524 26.144 72.9404 26.144ZM79.2188 26.144C78.4508 26.144 77.8028 26 77.2748 25.712C76.7468 25.408 76.3548 25.024 76.0988 24.56C75.8428 24.08 75.7148 23.584 75.7148 23.072C75.7148 22.544 75.8428 22.088 76.0988 21.704C76.3388 21.304 76.6348 21.016 76.9868 20.84C77.6108 19.72 78.1548 18.592 78.6188 17.456C79.0828 16.304 79.5228 15.064 79.9388 13.736L83.4908 13.256C83.5708 15.304 83.7068 17.52 83.8988 19.904C83.9788 20.864 84.0188 21.56 84.0188 21.992C84.0188 22.968 83.7708 23.768 83.2748 24.392C82.7788 25.016 82.1628 25.464 81.4268 25.736C80.7068 26.008 79.9708 26.144 79.2188 26.144ZM78.4508 24.248C79.0428 24.248 79.5388 24.072 79.9388 23.72C80.3388 23.368 80.5388 22.8 80.5388 22.016C80.5388 21.536 80.4908 20.864 80.3948 20C80.2348 18.176 80.1308 16.952 80.0828 16.328C79.6988 17.592 79.0508 19.104 78.1388 20.864C78.5068 21.056 78.6908 21.336 78.6908 21.704C78.6908 22.008 78.5868 22.28 78.3788 22.52C78.1868 22.76 77.9388 22.88 77.6348 22.88C77.2988 22.88 77.0828 22.776 76.9868 22.568C76.9868 23.144 77.0988 23.568 77.3228 23.84C77.5628 24.112 77.9388 24.248 78.4508 24.248Z" fill="white"/>
<defs>
<clipPath id="clip0">
<rect width="25" height="25" fill="white" transform="translate(25 25) rotate(-180)"/>
</clipPath>
</defs>
</svg>
