<svg width="69" height="58" viewBox="0 0 69 58" fill="none" xmlns="http://www.w3.org/2000/svg">
<path fill-rule="evenodd" clip-rule="evenodd" d="M22.9824 13.7555C21.8789 12.9883 21.3511 12.7244 20.1754 12.7244C19.1681 12.7244 18.2564 13.204 17.5848 13.8753C16.9129 14.5467 16.5293 15.458 16.5293 16.4892C16.5293 17.4964 16.9132 18.4078 17.5848 19.0791C18.2564 19.7504 19.1681 20.2544 20.1754 20.2544H32.6504L22.9824 13.7555Z" fill="#CECECE"/>
<path fill-rule="evenodd" clip-rule="evenodd" d="M27.2047 7.85588C26.7009 6.60905 26.4129 6.08148 25.4532 5.43373C24.6138 4.85824 23.5819 4.73843 22.6466 4.93013C21.7109 5.09788 20.8951 5.64977 20.3194 6.48886C19.7437 7.32795 19.5515 8.31119 19.7197 9.2465C19.9115 10.1818 20.3673 11.0688 21.2311 11.6443L32.0985 19.0545L27.2047 7.85588Z" fill="#4E5353"/>
<path fill-rule="evenodd" clip-rule="evenodd" d="M33.9454 5.09835C34.1612 3.80359 34.2095 3.20414 33.7297 2.12504C33.3217 1.18973 32.5063 0.566315 31.6182 0.230459C30.7309 -0.105398 29.7472 -0.0814341 28.7876 0.350276C27.8519 0.758023 27.1803 1.47729 26.8443 2.36431C26.5087 3.25169 26.4368 4.28286 26.8683 5.21817L32.1939 17.4484L33.9454 5.09835Z" fill="#333939"/>
<path fill-rule="evenodd" clip-rule="evenodd" d="M45.8442 13.7555C46.9477 12.9883 47.4758 12.7244 48.6505 12.7244C49.6828 12.7244 50.5702 13.204 51.2414 13.8753C51.9134 14.5467 52.2973 15.458 52.2973 16.4892C52.2973 17.4964 51.937 18.4078 51.2657 19.0791C50.5698 19.7504 49.6824 20.2544 48.6501 20.2544H36.2002L45.8442 13.7555Z" fill="#ADACAC"/>
<path fill-rule="evenodd" clip-rule="evenodd" d="M41.6467 7.85588C42.1265 6.60905 42.4145 6.08148 43.3742 5.43373C44.2379 4.85824 45.2448 4.73843 46.1805 4.93013C47.1161 5.09788 47.9559 5.64977 48.5316 6.48886C49.1073 7.32795 49.2995 8.31119 49.1074 9.2465C48.9395 10.1818 48.4597 11.0688 47.6199 11.6443L36.7529 19.0545L41.6467 7.85588Z" fill="#8E8F8F"/>
<path fill-rule="evenodd" clip-rule="evenodd" d="M41.9824 2.36431C41.6468 1.47729 40.9748 0.758023 40.0395 0.350276C39.1038 -0.0814341 38.1198 -0.105398 37.2325 0.230459C36.3451 0.566315 35.5289 1.18973 35.0974 2.12504C34.7618 2.89261 34.6895 3.41981 34.7618 4.13908V4.187L35.7687 4.21097C36.3448 4.23493 36.6324 4.37908 35.9129 4.69061C35.6492 4.88268 34.9053 5.0025 35.0738 6.32159L36.6571 17.4484L41.9824 5.21817C42.3899 4.28286 42.318 3.25206 41.9824 2.36431Z" fill="#4E5353"/>
<path fill-rule="evenodd" clip-rule="evenodd" d="M42.918 34.4748C42.918 38.2636 39.8233 38.5272 38.6715 38.5272C37.8801 38.5272 30.3711 38.623 30.3711 38.623V22.5801H37.6883C39.9912 22.5801 41.7662 24.4024 41.7662 26.6089C41.7662 28.8154 40.6152 30.1341 39.7271 30.1341C39.7271 30.1341 42.918 30.6613 42.918 34.4748Z" fill="black"/>
<path fill-rule="evenodd" clip-rule="evenodd" d="M34.5928 25.5059V28.4792H36.7282C38.2396 28.4792 38.3115 25.5059 36.7282 25.5059H34.5928ZM34.5928 31.861V35.2899H37.6395C39.3906 35.2899 39.4865 31.861 37.6395 31.861H34.5928Z" fill="white"/>
<path fill-rule="evenodd" clip-rule="evenodd" d="M16.9846 36.753C15.953 35.9372 14.7297 35.5058 12.5703 35.8177V38.6229H16.9367C16.673 38.4552 16.5767 38.2155 16.5288 38.0474C16.4089 37.5918 16.673 37.184 16.8887 36.8721C16.9123 36.8253 16.9367 36.777 16.9846 36.753ZM14.0817 32.5558C15.353 32.5558 16.3366 32.7718 17.0805 33.1073V28.7673L24.7813 38.6476L24.8052 38.6233H29.3154V22.5324H24.7813V32.4127L17.0805 22.5324H12.5703V32.628C13.0728 32.5813 13.5771 32.5572 14.0817 32.5558ZM55.6806 38.3357V37.4723H55.6562C55.4165 37.8561 55.1528 38.2874 54.8884 38.7195C55.1569 38.601 55.4211 38.4729 55.6806 38.3357ZM50.9783 39.3186C51.1944 38.9831 51.4341 38.6229 51.6502 38.2638C50.7865 38.4555 50.2587 38.5757 50.0186 38.6476C49.395 38.8393 49.011 38.5274 48.8912 38.408C48.6031 38.1201 48.5308 37.7123 48.675 37.2802C48.8428 36.8006 49.3227 36.2491 50.1624 36.1049C51.0974 35.9615 52.1533 35.7455 53.4486 35.4339C53.5444 35.2898 53.6407 35.146 53.7366 34.9783C53.2568 35.1703 52.7533 35.2419 52.2252 35.2419C51.6327 35.2426 51.0459 35.1265 50.4984 34.9002C49.9508 34.6739 49.4534 34.3418 49.0344 33.923C48.6154 33.5042 48.2833 33.0069 48.0569 32.4596C47.8305 31.9123 47.7143 31.3257 47.715 30.7334C47.715 28.2877 49.7298 26.2733 52.2252 26.2733C53.616 26.2733 54.8401 26.8967 55.6799 27.8799V23.3475C54.4797 22.7002 53.1126 22.3403 51.6495 22.3403C46.9472 22.3403 43.1329 26.1535 43.1329 30.8289C43.1337 35.3138 46.5876 38.9831 50.9783 39.3186Z" fill="black"/>
<path fill-rule="evenodd" clip-rule="evenodd" d="M68.7791 34.0189C68.5147 33.7553 68.251 33.2278 66.74 33.491C65.4687 33.707 58.871 34.9543 56.0164 35.5533C56.1606 35.2661 56.3037 35.0018 56.376 34.8101C57.0963 33.2274 56.0404 32.7717 55.225 33.9231C55.0088 34.2586 54.4807 35.0501 53.8571 36.033C52.2981 36.3932 51.2186 36.6088 50.2829 36.753C49.1319 36.9447 48.9393 38.2638 49.8271 37.9994C50.2593 37.88 51.507 37.6157 53.042 37.3045C51.6748 39.4627 50.0915 41.9807 49.5634 42.8677C48.676 44.3785 46.3731 45.8889 45.1255 46.5127C43.9017 47.1126 43.5422 46.6805 44.334 45.3621C45.1255 44.0191 45.8454 42.7 46.3731 41.9807C46.9006 41.285 46.3731 41.0214 45.845 41.1895C45.845 41.1895 46.4687 38.9834 45.1255 38.9834C43.8059 38.9834 43.2777 39.9427 42.7507 40.5661C42.2465 41.1659 40.5437 43.0122 38.7926 43.2036C39.1765 41.5014 38.0484 41.1895 38.0484 41.1895C38.0484 41.1895 38.9357 39.3425 36.2736 39.4148C35.3855 39.4391 33.5385 40.0382 32.2912 41.4771C31.9313 41.5254 31.3316 41.6931 30.6356 42.2447C29.3883 43.2283 27.445 44.6432 26.3895 45.1704C26.3895 45.1704 27.6368 43.4919 27.6368 41.9814C27.6368 40.4946 26.8214 40.4463 25.5977 40.4463C24.5661 40.4463 22.791 41.6459 21.0875 43.42C21.1834 43.0126 21.6632 40.4942 20.3676 40.5665C19.6237 40.6148 19.2881 41.2622 19.1442 42.005C18.4247 42.1009 16.1698 42.4847 12.8829 44.0434C11.7555 43.2039 9.71632 42.9164 7.34118 42.7003C3.71872 42.3401 2.20733 42.1724 2.20733 40.9256C2.20733 39.6791 5.66198 37.0409 9.38033 35.8903C13.6025 34.5712 15.7615 34.8108 17.6089 36.4175C18.1366 36.8496 16.6492 37.7366 17.3452 38.0968C18.0647 38.4562 18.9521 38.0968 18.8566 36.6818C18.7607 35.2669 17.9688 33.2285 14.0827 33.2285C10.1722 33.2285 3.98279 35.0025 0.792205 40.3029C0.000368696 41.6212 1.67993 43.3964 4.77425 43.6596C6.83738 43.8517 9.52417 44.2351 10.9157 45.0746C10.8438 45.0981 10.7715 45.1464 10.7235 45.1704C5.39791 48.1924 0 50.5666 0 53.2276C0 54.4749 0.695946 54.8347 2.7351 54.8347C4.77425 54.8347 13.8186 50.6621 13.8186 45.9616C13.8186 45.4583 13.6984 45.0263 13.4586 44.6668C15.354 43.8273 17.2489 43.156 18.9524 42.8681L19.0244 42.7003C18.9764 43.18 18.9764 43.6121 18.9524 43.9228C18.9045 44.331 18.6648 45.458 18.3528 46.7527C16.3136 49.3909 13.8426 52.8682 13.6268 54.7388C13.3631 57.2085 13.7227 58.0001 14.7786 58.0001C15.7383 58.0001 16.7455 57.6646 19.7926 47.7839C20.0083 48.4073 20.656 48.9353 21.6875 48.7911C23.103 48.6234 25.7659 47.8318 28.2369 45.6257C30.2281 43.8517 30.7798 43.3956 31.3076 43.3956C31.2344 43.6623 31.1863 43.9352 31.1638 44.2108C30.8997 47.6641 32.3152 47.9996 33.2988 48.0954C34.2345 48.192 37.2809 47.2567 38.5285 44.043C39.1046 44.1632 40.4722 44.2108 42.2952 42.4367C44.7906 40.0382 44.5261 41.0218 44.1666 41.6209C43.8062 42.2443 41.7671 44.8106 42.4866 46.585C43.1826 48.3598 44.3344 48.6234 46.6372 46.9452C48.9401 45.2659 49.8274 44.4747 49.8274 44.4747C49.8274 44.4747 49.6596 46.9452 52.131 46.9452C53.6424 46.9452 55.3212 45.6261 57.1929 43.7555C59.0399 41.9092 60.2876 40.1344 61.0791 40.1344C61.0791 40.1344 62.2302 42.6048 60.8154 44.1157C59.6396 45.3382 59.2557 45.6747 58.6084 45.3629C57.5286 44.8113 55.9453 45.6265 56.9049 46.3221C57.8882 47.0414 58.5118 47.9284 60.4554 46.5857C62.3991 45.2666 64.7019 43.3245 66.6445 41.5497C68.4199 39.9434 67.0048 39.7757 65.9492 41.0225C65.1578 41.9335 62.7583 43.4922 62.7583 43.4922C62.7583 43.4922 63.4778 40.5665 61.8709 38.624C61.8709 38.624 61.175 36.7541 60.1917 38.7206C60.1917 38.7206 57.1929 42.2454 56.0411 43.3967C53.5458 45.8904 49.4442 46.658 50.9792 43.7562C51.5549 42.6531 53.7862 39.2478 55.2257 36.8739C56.3532 36.6579 57.505 36.4182 58.5118 36.2265C61.7028 35.6031 67.4606 34.8116 68.348 34.8116C69.2354 34.8116 69.0428 34.2825 68.7791 34.0189Z" fill="#333939"/>
<path fill-rule="evenodd" clip-rule="evenodd" d="M11.7792 46.6805C10.9873 49.4145 5.6617 53.2273 3.62255 53.4916C1.58339 53.7552 1.15151 52.6039 3.8147 50.494C5.32608 49.2708 8.30091 47.2567 11.5634 45.6018C11.8028 45.9137 11.899 46.2728 11.7792 46.6805ZM16.7448 52.0767C15.8571 54.2828 15.1376 55.6978 14.5139 55.53C13.9142 55.3615 14.7536 52.292 17.5367 49.6542C17.2726 50.5895 16.9849 51.4529 16.7448 52.0767ZM25.8611 43.2279C25.4052 44.9065 23.5579 46.7771 22.5027 46.5128C21.7109 46.2975 20.7036 46.2975 20.1515 46.6329C20.1515 46.6093 20.1515 46.5846 20.1751 46.5611C21.2546 44.9301 21.9746 43.4676 23.3657 42.7C25.597 41.4528 26.2926 41.5486 25.8611 43.2279ZM35.4812 46.4169C34.2574 46.9448 32.77 47.3762 32.77 46.2252C32.77 45.0738 32.77 43.2276 34.5931 41.9804L34.953 41.3569C34.953 41.3569 36.2007 41.8126 37.0881 41.6205C37.0881 41.6205 37.2559 42.7 37.6162 43.1313C37.6162 43.1313 36.7288 45.889 35.4812 46.4169Z" fill="white"/>
</svg>
