<svg width="123" height="123" viewBox="0 0 123 123" fill="none" xmlns="http://www.w3.org/2000/svg">
<g filter="url(#filter0_dd)">
<circle cx="61.5" cy="58.5" r="45.5" fill="white"/>
</g>
<path d="M70.0339 40.4626L53.3672 40.446C51.5339 40.446 50.0339 41.946 50.0339 43.7793V48.7793H53.3672V47.1126H70.0339V70.446H53.3672V68.7793H50.0339V73.7793C50.0339 75.6126 51.5339 77.1126 53.3672 77.1126H70.0339C71.8672 77.1126 73.3672 75.6126 73.3672 73.7793V43.7793C73.3672 41.946 71.8672 40.4626 70.0339 40.4626ZM56.7005 63.7793H60.0339V52.1126H48.3672V55.446H54.3505L45.0339 64.7626L47.3839 67.1126L56.7005 57.796V63.7793Z" fill="#333333"/>
<defs>
<filter id="filter0_dd" x="0.310346" y="0.448277" width="122.379" height="122.379" filterUnits="userSpaceOnUse" color-interpolation-filters="sRGB">
<feFlood flood-opacity="0" result="BackgroundImageFix"/>
<feColorMatrix in="SourceAlpha" type="matrix" values="0 0 0 0 0 0 0 0 0 0 0 0 0 0 0 0 0 0 127 0"/>
<feOffset dy="3.13793"/>
<feGaussianBlur stdDeviation="7.84483"/>
<feColorMatrix type="matrix" values="0 0 0 0 0 0 0 0 0 0 0 0 0 0 0 0 0 0 0.25 0"/>
<feBlend mode="normal" in2="BackgroundImageFix" result="effect1_dropShadow"/>
<feColorMatrix in="SourceAlpha" type="matrix" values="0 0 0 0 0 0 0 0 0 0 0 0 0 0 0 0 0 0 127 0"/>
<feOffset dy="2.51034"/>
<feGaussianBlur stdDeviation="3.13793"/>
<feColorMatrix type="matrix" values="0 0 0 0 0.2 0 0 0 0 0.2 0 0 0 0 0.2 0 0 0 0.1 0"/>
<feBlend mode="normal" in2="effect1_dropShadow" result="effect2_dropShadow"/>
<feBlend mode="normal" in="SourceGraphic" in2="effect2_dropShadow" result="shape"/>
</filter>
</defs>
</svg>
