<svg width="769" height="589" viewBox="0 0 769 589" fill="none" xmlns="http://www.w3.org/2000/svg">
<g opacity="0.5">
<path opacity="0.4" d="M89.1259 76.1284L233.863 9.5918L654.212 587.67L461.577 588.335L89.1259 76.1284Z" fill="#084482"/>
<path opacity="0.6" d="M0.0078125 28.4773L41.0892 9.59187L461.922 588.335L268.803 588.335L0.0837168 218.783L0.0078125 28.4773Z" fill="#00ADEE"/>
<path opacity="0.6" d="M0.0078125 218.45L0.00796653 0L34.2812 0.000205076L428.713 542.436L327.424 589L269.453 589L0.0078125 218.45Z" fill="#084482"/>
<path opacity="0.6" d="M34.1254 0.109131L227.244 0.109447L363.51 187.507L218.774 254.043L34.1254 0.109131Z" fill="#084482"/>
<path opacity="0.6" d="M768.785 1.43839L768.788 1.4384L0.0078125 354.354L0.00812327 200.857L434.415 1.43842L768.785 1.43839Z" fill="white" fill-opacity="0.2"/>
</g>
</svg>
