<svg width="25" height="25" viewBox="0 0 25 25" fill="none" xmlns="http://www.w3.org/2000/svg">
<path d="M12.5 0C19.403 0 25 5.59687 25 12.5C25 19.4032 19.4031 25 12.5 25C5.59696 25 0 19.4031 0 12.5C0 5.59696 5.5961 0 12.5 0Z" fill="white"/>
<path d="M16.8136 5.46729H8.18478C6.68556 5.46729 5.4668 6.68682 5.4668 8.18527V16.815C5.4668 18.3142 6.68634 19.533 8.18478 19.533H16.8145C18.3137 19.533 19.5325 18.3134 19.5325 16.815V8.18527C19.5324 6.68682 18.3129 5.46729 16.8136 5.46729ZM17.6699 7.03996L17.9777 7.03919V9.37357L15.6262 9.38138L15.6184 7.047L17.6699 7.03996ZM12.4996 10.1469C14.4504 10.1469 14.8527 11.9782 14.8527 12.5008C14.8527 13.7969 13.7965 14.8531 12.4996 14.8531C11.202 14.8531 10.1465 13.7969 10.1465 12.5008C10.1457 11.9782 10.5489 10.1469 12.4996 10.1469ZM17.991 16.6446C17.991 17.3876 17.3871 17.9923 16.6426 17.9923H8.33007C7.58629 17.9923 6.98163 17.3884 6.98163 16.6446V10.9345H8.93473C8.75349 11.3806 8.65111 11.9899 8.65111 12.5009C8.65111 14.6213 10.3761 16.347 12.4972 16.347C14.6184 16.347 16.3425 14.6213 16.3425 12.5009C16.3425 11.9899 16.2401 11.3806 16.0597 10.9345H17.9893V16.6446H17.991Z" fill="#00ADEE"/>
</svg>
